<svg width="278" height="40" viewBox="0 0 278 40" fill="none" xmlns="http://www.w3.org/2000/svg">
<path d="M145.256 30.82C138.184 30.82 133.8 26.468 133.8 19.78C133.8 13.092 138.184 8.74 145.256 8.74C151.912 8.74 156.2 12.068 156.2 17.508V17.988H150.856V17.508C150.856 14.692 149.256 13.348 145.352 13.348C140.648 13.348 138.888 15.012 138.888 19.78C138.888 24.548 140.648 26.212 145.352 26.212C149.256 26.212 150.856 24.868 150.856 22.052V21.572H156.2V22.052C156.2 27.492 151.944 30.82 145.256 30.82ZM163.08 30.5H158.28V14.468H162.728V18.724H163.016C163.464 16.132 165.16 14.148 168.392 14.148C171.976 14.148 173.448 16.612 173.448 19.748V22.404H168.648V20.74C168.648 18.98 167.944 18.212 165.992 18.212C163.848 18.212 163.08 19.204 163.08 21.22V30.5ZM180.114 30.82C176.658 30.82 174.578 29.22 174.578 26.532C174.578 24.164 176.338 22.692 179.762 22.34L186.642 21.636V21.028C186.642 18.948 185.714 18.372 183.154 18.372C180.722 18.372 179.73 19.012 179.73 20.836V20.964H174.898V20.868C174.898 16.9 178.226 14.148 183.506 14.148C188.85 14.148 191.378 16.9 191.378 21.092V30.5H186.898V26.82H186.642C185.906 29.316 183.666 30.82 180.114 30.82ZM179.41 26.212C179.41 27.076 180.082 27.428 181.49 27.428C184.754 27.428 186.514 26.66 186.642 24.388L181.074 25.028C179.922 25.124 179.41 25.444 179.41 26.212ZM202.899 30.5H196.915L192.531 14.468H197.491L199.379 21.796L200.051 26.788H200.371L201.651 21.316L204.083 14.468H210.259L212.659 21.316L213.939 26.788H214.259L214.963 21.796L216.819 14.468H221.715L217.171 30.5H211.187L208.435 22.788L207.251 18.372H206.899L205.683 22.788L202.899 30.5ZM227.799 30.5H222.999V9.06H227.799V30.5ZM235.111 12.836H230.311V9.06H235.111V12.836ZM235.111 30.5H230.311V14.468H235.111V30.5ZM242.424 30.5H237.624V14.468H242.072V19.396H242.36C242.776 16.708 244.696 14.148 248.888 14.148C253.272 14.148 255.352 16.964 255.352 20.516V30.5H250.552V22.116C250.552 19.556 249.496 18.468 246.552 18.468C243.512 18.468 242.424 19.684 242.424 22.404V30.5ZM264.82 28.868C260.052 28.868 257.3 26.02 257.3 21.508C257.3 17.028 260.212 14.148 265.012 14.148C268.276 14.148 270.612 15.556 271.124 18.34H271.38V14.468H275.86V28.164C275.86 33.764 272.468 36.26 266.74 36.26C261.556 36.26 258.292 33.956 258.292 29.924H263.092C263.092 31.716 263.796 32.26 267.06 32.26C270.132 32.26 271.06 31.62 271.06 28.484V24.868H270.804C270.292 27.236 268.404 28.868 264.82 28.868ZM262.132 21.508C262.132 23.876 263.476 24.74 266.484 24.74C269.556 24.74 271.06 23.876 271.06 21.668V21.316C271.06 19.14 269.524 18.308 266.548 18.308C263.476 18.308 262.132 19.14 262.132 21.508Z" fill="#F5F5F5"/>
<path d="M11.008 30.82C4.512 30.82 0.864 28.26 0.864 23.268V23.076H5.664V23.652C5.664 25.636 6.656 26.436 11.008 26.436C14.848 26.436 15.744 25.86 15.744 24.42C15.744 23.108 15.008 22.628 12.8 22.244L6.784 21.38C2.944 20.772 0.672 18.852 0.672 15.364C0.672 12.132 3.296 8.74 10.496 8.74C17.088 8.74 20.16 11.78 20.16 16.292V16.484H15.328V16.036C15.328 13.988 14.272 13.124 10.016 13.124C6.56 13.124 5.504 13.796 5.504 15.172C5.504 16.42 6.208 16.868 8 17.188L14.016 18.148C18.816 18.916 20.544 21.252 20.544 24.196C20.544 27.684 17.824 30.82 11.008 30.82ZM31.0428 30.82C25.5388 30.82 22.0188 27.556 22.0188 22.5C22.0188 17.38 25.5388 14.148 31.0428 14.148C36.1948 14.148 39.7148 16.9 39.7148 21.06V21.508H34.9468V21.252C34.9468 19.204 33.4428 18.468 30.9468 18.468C28.0988 18.468 26.7868 19.524 26.7868 22.5C26.7868 25.444 28.0988 26.5 30.9468 26.5C33.4428 26.5 34.9468 25.764 34.9468 23.716V23.46H39.7148V23.908C39.7148 28.036 36.1948 30.82 31.0428 30.82ZM46.708 30.82C43.252 30.82 41.172 29.22 41.172 26.532C41.172 24.164 42.932 22.692 46.356 22.34L53.236 21.636V21.028C53.236 18.948 52.308 18.372 49.748 18.372C47.316 18.372 46.324 19.012 46.324 20.836V20.964H41.492V20.868C41.492 16.9 44.82 14.148 50.1 14.148C55.444 14.148 57.972 16.9 57.972 21.092V30.5H53.492V26.82H53.236C52.5 29.316 50.26 30.82 46.708 30.82ZM46.004 26.212C46.004 27.076 46.676 27.428 48.084 27.428C51.348 27.428 53.108 26.66 53.236 24.388L47.668 25.028C46.516 25.124 46.004 25.444 46.004 26.212ZM65.205 30.5H60.405V9.06H65.205V30.5ZM72.6455 30.82C69.1895 30.82 67.1095 29.22 67.1095 26.532C67.1095 24.164 68.8695 22.692 72.2935 22.34L79.1735 21.636V21.028C79.1735 18.948 78.2455 18.372 75.6855 18.372C73.2535 18.372 72.2615 19.012 72.2615 20.836V20.964H67.4295V20.868C67.4295 16.9 70.7575 14.148 76.0375 14.148C81.3815 14.148 83.9095 16.9 83.9095 21.092V30.5H79.4295V26.82H79.1735C78.4375 29.316 76.1975 30.82 72.6455 30.82ZM71.9415 26.212C71.9415 27.076 72.6135 27.428 74.0215 27.428C77.2855 27.428 79.0455 26.66 79.1735 24.388L73.6055 25.028C72.4535 25.124 71.9415 25.444 71.9415 26.212ZM90.7905 30.5H86.3425V9.06H91.1425V18.724H91.3985C91.9425 16.036 93.8945 14.148 97.7025 14.148C102.503 14.148 105.191 17.38 105.191 22.5C105.191 27.556 102.471 30.82 97.4785 30.82C93.7665 30.82 91.6545 29.22 91.0785 26.052H90.7905V30.5ZM91.1425 22.596C91.1425 25.38 92.7745 26.436 95.8145 26.436C98.9185 26.436 100.327 25.412 100.327 22.5C100.327 19.556 98.9185 18.532 95.8465 18.532C92.7425 18.532 91.1425 19.556 91.1425 22.34V22.596ZM111.986 30.5H107.186V9.06H111.986V30.5ZM123.011 30.82C117.667 30.82 114.019 28.196 114.019 22.5C114.019 17.38 117.635 14.148 122.915 14.148C128.163 14.148 131.651 16.9 131.651 21.924C131.651 22.5 131.587 22.916 131.523 23.46H118.467C118.595 25.924 119.747 26.98 122.851 26.98C125.699 26.98 126.691 26.244 126.691 24.868V24.548H131.491V24.9C131.491 28.388 128.099 30.82 123.011 30.82ZM122.819 17.892C119.971 17.892 118.755 18.852 118.531 20.932H127.043C126.915 18.82 125.635 17.892 122.819 17.892Z" fill="#F5F5F5"/>
<line x1="4.3946e-09" y1="33.5" x2="256" y2="33.5" stroke="#FFC300" stroke-width="2"/>
<rect x="230" y="8.5" width="5" height="4" fill="#FFC300"/>
</svg>
