<svg width="230" height="32" viewBox="0 0 230 32" fill="none" xmlns="http://www.w3.org/2000/svg">
<path d="M120.176 24.8782C114.325 24.8782 110.698 21.3073 110.698 15.8197C110.698 10.3321 114.325 6.76123 120.176 6.76123C125.683 6.76123 129.23 9.4919 129.23 13.9555V14.3493H124.809V13.9555C124.809 11.6449 123.485 10.5422 120.255 10.5422C116.363 10.5422 114.907 11.9075 114.907 15.8197C114.907 19.7319 116.363 21.0972 120.255 21.0972C123.485 21.0972 124.809 19.9945 124.809 17.6839V17.2901H129.23V17.6839C129.23 22.1475 125.709 24.8782 120.176 24.8782Z" fill="#F5F5F5"/>
<path d="M134.922 24.6156H130.951V11.4611H134.631V14.9532H134.869C135.24 12.8265 136.643 11.1986 139.317 11.1986C142.282 11.1986 143.5 13.2203 143.5 15.7934V17.9727H139.529V16.6074C139.529 15.1633 138.946 14.5331 137.332 14.5331C135.558 14.5331 134.922 15.3471 134.922 17.0012V24.6156Z" fill="#F5F5F5"/>
<path d="M149.015 24.8782C146.156 24.8782 144.435 23.5653 144.435 21.3598C144.435 19.4168 145.891 18.209 148.724 17.9202L154.416 17.3426V16.8437C154.416 15.137 153.648 14.6644 151.531 14.6644C149.518 14.6644 148.698 15.1895 148.698 16.6862V16.7912H144.7V16.7124C144.7 13.4566 147.453 11.1986 151.822 11.1986C156.243 11.1986 158.335 13.4566 158.335 16.8962V24.6156H154.628V21.5961H154.416C153.807 23.6441 151.954 24.8782 149.015 24.8782ZM148.433 21.0972C148.433 21.8062 148.989 22.095 150.154 22.095C152.854 22.095 154.31 21.4648 154.416 19.6006L149.81 20.1257C148.857 20.2045 148.433 20.4671 148.433 21.0972Z" fill="#F5F5F5"/>
<path d="M167.866 24.6156H162.915L159.288 11.4611H163.392L164.954 17.4738L165.51 21.5698H165.775L166.834 17.08L168.846 11.4611H173.956L175.941 17.08L177 21.5698H177.265L177.847 17.4738L179.383 11.4611H183.433L179.674 24.6156H174.723L172.446 18.2878L171.467 14.6644H171.176L170.17 18.2878L167.866 24.6156Z" fill="#F5F5F5"/>
<path d="M188.467 24.6156H184.495V7.02379H188.467V24.6156Z" fill="#F5F5F5"/>
<path d="M194.517 24.6156H190.545V11.4611H194.517V24.6156Z" fill="#F5F5F5"/>
<path d="M200.566 24.6156H196.595V11.4611H200.275V15.5046H200.513C200.858 13.2991 202.446 11.1986 205.914 11.1986C209.541 11.1986 211.262 13.5091 211.262 16.4236V24.6156H207.291V17.7364C207.291 15.6359 206.417 14.7432 203.982 14.7432C201.467 14.7432 200.566 15.7409 200.566 17.9727V24.6156Z" fill="#F5F5F5"/>
<path d="M219.096 23.2765C215.151 23.2765 212.874 20.9397 212.874 17.2375C212.874 13.5616 215.283 11.1986 219.255 11.1986C221.955 11.1986 223.888 12.3538 224.311 14.6382H224.523V11.4611H228.229V22.6989C228.229 27.2937 225.423 29.3417 220.684 29.3417C216.395 29.3417 213.695 27.4513 213.695 24.143H217.666C217.666 25.6133 218.248 26.0597 220.949 26.0597C223.491 26.0597 224.258 25.5346 224.258 22.9614V19.9945H224.046C223.623 21.9374 222.061 23.2765 219.096 23.2765ZM216.872 17.2375C216.872 19.1805 217.984 19.8894 220.472 19.8894C223.014 19.8894 224.258 19.1805 224.258 17.3688V17.08C224.258 15.2946 222.987 14.6119 220.525 14.6119C217.984 14.6119 216.872 15.2946 216.872 17.2375Z" fill="#F5F5F5"/>
<path d="M9.10734 24.8782C3.73295 24.8782 0.714818 22.7776 0.714818 18.6816V18.5241H4.68604V18.9967C4.68604 20.6246 5.50676 21.281 9.10734 21.281C12.2843 21.281 13.0256 20.8084 13.0256 19.6269C13.0256 18.5504 12.4167 18.1565 10.5899 17.8414L5.61266 17.1325C2.43568 16.6336 0.555969 15.0583 0.555969 12.1963C0.555969 9.54441 2.72691 6.76123 8.68374 6.76123C14.1376 6.76123 16.6791 9.25559 16.6791 12.9577V13.1153H12.6814V12.7477C12.6814 11.0673 11.8078 10.3584 8.28662 10.3584C5.42734 10.3584 4.55367 10.9097 4.55367 12.0388C4.55367 13.0628 5.13611 13.4304 6.6187 13.6929L11.596 14.4806C15.5672 15.1108 16.9968 17.0275 16.9968 19.4431C16.9968 22.305 14.7465 24.8782 9.10734 24.8782Z" fill="#F5F5F5"/>
<path d="M25.6828 24.8782C21.1292 24.8782 18.2169 22.2 18.2169 18.0515C18.2169 13.8505 21.1292 11.1986 25.6828 11.1986C29.9453 11.1986 32.8575 13.4566 32.8575 16.8699V17.2375H28.9128V17.0275C28.9128 15.3471 27.6685 14.7432 25.6034 14.7432C23.2472 14.7432 22.1617 15.6096 22.1617 18.0515C22.1617 20.4671 23.2472 21.3335 25.6034 21.3335C27.6685 21.3335 28.9128 20.7296 28.9128 19.0492V18.8392H32.8575V19.2068C32.8575 22.5938 29.9453 24.8782 25.6828 24.8782Z" fill="#F5F5F5"/>
<path d="M38.6433 24.8782C35.784 24.8782 34.0632 23.5653 34.0632 21.3598C34.0632 19.4168 35.5193 18.209 38.3521 17.9202L44.0442 17.3426V16.8437C44.0442 15.137 43.2764 14.6644 41.1584 14.6644C39.1463 14.6644 38.3256 15.1895 38.3256 16.6862V16.7912H34.3279V16.7124C34.3279 13.4566 37.0813 11.1986 41.4496 11.1986C45.8709 11.1986 47.9624 13.4566 47.9624 16.8962V24.6156H44.256V21.5961H44.0442C43.4352 23.6441 41.582 24.8782 38.6433 24.8782ZM38.0609 21.0972C38.0609 21.8062 38.6168 22.095 39.7817 22.095C42.4822 22.095 43.9383 21.4648 44.0442 19.6006L39.4376 20.1257C38.4845 20.2045 38.0609 20.4671 38.0609 21.0972Z" fill="#F5F5F5"/>
<path d="M53.9466 24.6156H49.9754V7.02379H53.9466V24.6156Z" fill="#F5F5F5"/>
<path d="M60.1024 24.8782C57.2431 24.8782 55.5222 23.5653 55.5222 21.3598C55.5222 19.4168 56.9784 18.209 59.8112 17.9202L65.5033 17.3426V16.8437C65.5033 15.137 64.7355 14.6644 62.6175 14.6644C60.6054 14.6644 59.7847 15.1895 59.7847 16.6862V16.7912H55.787V16.7124C55.787 13.4566 58.5404 11.1986 62.9087 11.1986C67.33 11.1986 69.4215 13.4566 69.4215 16.8962V24.6156H65.7151V21.5961H65.5033C64.8943 23.6441 63.0411 24.8782 60.1024 24.8782ZM59.5199 21.0972C59.5199 21.8062 60.0759 22.095 61.2408 22.095C63.9412 22.095 65.3974 21.4648 65.5033 19.6006L60.8966 20.1257C59.9435 20.2045 59.5199 20.4671 59.5199 21.0972Z" fill="#F5F5F5"/>
<path d="M75.1144 24.6156H71.4344V7.02379H75.4057V14.9532H75.6175C76.0675 12.7477 77.6825 11.1986 80.833 11.1986C84.8042 11.1986 87.0281 13.8505 87.0281 18.0515C87.0281 22.2 84.7778 24.8782 80.6477 24.8782C77.5766 24.8782 75.8293 23.5653 75.3527 20.9659H75.1144V24.6156ZM75.4057 18.1303C75.4057 20.4146 76.7559 21.281 79.271 21.281C81.8391 21.281 83.0039 20.4408 83.0039 18.0515C83.0039 15.6359 81.8391 14.7957 79.2975 14.7957C76.7294 14.7957 75.4057 15.6359 75.4057 17.9202V18.1303Z" fill="#F5F5F5"/>
<path d="M92.6505 24.6156H88.6793V7.02379H92.6505V24.6156Z" fill="#F5F5F5"/>
<path d="M101.771 24.8782C97.3502 24.8782 94.3321 22.7251 94.3321 18.0515C94.3321 13.8505 97.3237 11.1986 101.692 11.1986C106.034 11.1986 108.92 13.4566 108.92 17.5789C108.92 18.0515 108.867 18.3928 108.814 18.8392H98.0121C98.118 20.8609 99.0711 21.7274 101.639 21.7274C103.995 21.7274 104.816 21.1235 104.816 19.9945V19.7319H108.787V20.0207C108.787 22.8827 105.981 24.8782 101.771 24.8782ZM101.613 14.2706C99.2564 14.2706 98.2503 15.0583 98.065 16.7649H105.107C105.001 15.032 103.942 14.2706 101.613 14.2706Z" fill="#F5F5F5"/>
<path d="M190.545 10.1217H194.517V7.02344H190.545V10.1217Z" fill="#FFC300"/>
<line x1="3.63582e-09" y1="26.8975" x2="211.799" y2="26.8975" stroke="#FFC300" stroke-width="2"/>
</svg>
