<svg width="186" height="37" viewBox="0 0 186 37" fill="none" xmlns="http://www.w3.org/2000/svg">
<path d="M51.6119 12.748C52.6981 13.5999 53.4137 14.7579 53.7639 16.2271H50.9927C50.7034 15.5129 50.2619 14.9467 49.6528 14.5335C49.0488 14.1203 48.3231 13.9111 47.4755 13.9111C46.775 13.9111 46.1457 14.0845 45.5874 14.4365C45.024 14.7885 44.5875 15.2885 44.2779 15.9414C43.9683 16.5944 43.811 17.3596 43.811 18.237C43.811 19.1144 43.9683 19.8592 44.2779 20.5122C44.5875 21.1652 45.024 21.6651 45.5874 22.0171C46.1508 22.3691 46.7801 22.5425 47.4755 22.5425C48.3231 22.5425 49.0488 22.3334 49.6528 21.9202C50.2568 21.507 50.7034 20.9407 50.9927 20.2265H53.7639C53.4137 21.6957 52.6981 22.8537 51.6119 23.7056C50.5258 24.5576 49.1605 24.9861 47.5161 24.9861C46.2574 24.9861 45.1408 24.7004 44.1764 24.129C43.2121 23.5577 42.4609 22.7619 41.9331 21.7314C41.4052 20.7061 41.1362 19.5379 41.1362 18.2319C41.1362 16.926 41.4002 15.7425 41.9331 14.7171C42.4609 13.6917 43.207 12.8908 44.1663 12.3195C45.1255 11.7481 46.2421 11.4625 47.5161 11.4625C49.1605 11.4625 50.5258 11.891 51.6119 12.7429V12.748Z" fill="#0C0C0C" stroke="#0C0C0C" stroke-width="0.3" stroke-miterlimit="10"/>
<path d="M59.9206 14.8816C60.555 14.499 61.2656 14.3102 62.0523 14.3102V17.1517H61.2859C59.3522 17.1517 58.3878 18.0546 58.3878 19.8605V24.8802H55.7486V14.4633H58.3878V16.4579C58.7736 15.7947 59.2862 15.2693 59.9206 14.8867V14.8816Z" fill="#0C0C0C" stroke="#0C0C0C" stroke-width="0.3" stroke-miterlimit="10"/>
<path d="M65.2912 14.4572L68.1182 21.5276L70.7372 14.4572H73.6352L67.2909 29.8377H64.3726L66.7123 24.5731L62.3525 14.4572H65.2912Z" fill="#0C0C0C" stroke="#0C0C0C" stroke-width="0.3" stroke-miterlimit="10"/>
<path d="M83.4154 14.9673C84.1158 15.3907 84.6589 16.0131 85.0548 16.8191C85.4456 17.6251 85.6435 18.579 85.6435 19.6656C85.6435 20.7522 85.4456 21.7061 85.0548 22.5121C84.664 23.3182 84.1158 23.9405 83.4154 24.3639C82.715 24.7924 81.9334 25.0016 81.0604 25.0016C80.1874 25.0016 79.4413 24.7924 78.8272 24.3741C78.2131 23.9558 77.7715 23.3947 77.5076 22.6907V29.8376H74.8683V14.4572H77.5076V16.6201C77.7715 15.9161 78.208 15.3601 78.8272 14.9469C79.4464 14.5337 80.1874 14.3245 81.0604 14.3245C81.9334 14.3245 82.7201 14.5388 83.4154 14.9622V14.9673ZM78.2587 17.4567C77.7411 18.0026 77.4822 18.7372 77.4822 19.6656C77.4822 20.594 77.7411 21.3133 78.2587 21.8541C78.7764 22.3999 79.4362 22.6703 80.2331 22.6703C81.0299 22.6703 81.7151 22.405 82.2176 21.8694C82.715 21.3388 82.9637 20.5991 82.9637 19.6605C82.9637 18.7219 82.715 17.9822 82.2176 17.4414C81.7202 16.9007 81.0553 16.6354 80.2331 16.6354C79.4109 16.6354 78.7764 16.9058 78.2587 17.4516V17.4567Z" fill="#0C0C0C" stroke="#0C0C0C" stroke-width="0.3" stroke-miterlimit="10"/>
<path d="M93.0524 22.5978V24.873H91.6668C90.5045 24.873 89.6163 24.5924 89.0022 24.0262C88.383 23.4599 88.0784 22.5213 88.0784 21.2051V16.6905H86.637V14.451H88.0784V11.8748H90.7177V14.451H93.0372V16.6905H90.7177V21.2408C90.7177 21.7408 90.8192 22.0928 91.0171 22.2917C91.2151 22.4907 91.5551 22.5927 92.0271 22.5927H93.0575L93.0524 22.5978Z" fill="#0C0C0C" stroke="#0C0C0C" stroke-width="0.3" stroke-miterlimit="10"/>
<path d="M102.452 14.9683C103.254 15.3917 103.889 16.0141 104.35 16.8201C104.812 17.6261 105.041 18.58 105.041 19.6666C105.041 20.7532 104.807 21.702 104.35 22.508C103.889 23.309 103.254 23.9262 102.452 24.3598C101.645 24.7934 100.742 25.0077 99.7318 25.0077C98.7218 25.0077 97.8133 24.7934 97.0114 24.3598C96.2095 23.9262 95.575 23.309 95.1132 22.508C94.6513 21.7071 94.4229 20.7583 94.4229 19.6666C94.4229 18.5749 94.6513 17.6261 95.1132 16.8201C95.575 16.0141 96.2095 15.3917 97.0114 14.9683C97.8133 14.5398 98.7218 14.3306 99.7318 14.3306C100.742 14.3306 101.65 14.5449 102.452 14.9683ZM97.859 17.4016C97.3464 17.922 97.0926 18.677 97.0926 19.6666C97.0926 20.6563 97.3464 21.4113 97.859 21.9316C98.3716 22.4519 98.9959 22.7121 99.7318 22.7121C100.468 22.7121 101.092 22.4519 101.605 21.9316C102.117 21.4113 102.371 20.6563 102.371 19.6666C102.371 18.677 102.117 17.922 101.605 17.4016C101.092 16.8813 100.468 16.6211 99.7318 16.6211C98.9959 16.6211 98.3716 16.8813 97.859 17.4016Z" fill="#0C0C0C" stroke="#0C0C0C" stroke-width="0.3" stroke-miterlimit="10"/>
<path d="M121.152 11.7482V24.8739H118.533V15.7171L115.183 24.8739H112.899L109.549 15.7528V24.8739H106.91V11.7482H110.108L114.072 21.6193L117.964 11.7482H121.147H121.152Z" fill="#0C0C0C" stroke="#0C0C0C" stroke-width="0.3" stroke-miterlimit="10"/>
<path d="M129.849 14.9479C130.474 15.3611 130.915 15.9171 131.179 16.6211V14.4582H133.798V24.8751H131.179V22.6917C130.915 23.3957 130.474 23.9568 129.849 24.3751C129.225 24.7934 128.479 25.0026 127.606 25.0026C126.733 25.0026 125.946 24.7883 125.251 24.3649C124.551 23.9415 124.008 23.3192 123.612 22.5131C123.216 21.7071 123.023 20.7532 123.023 19.6666C123.023 18.58 123.221 17.6261 123.612 16.8201C124.003 16.0141 124.551 15.3917 125.251 14.9683C125.951 14.5398 126.733 14.3306 127.606 14.3306C128.479 14.3306 129.225 14.5398 129.849 14.953V14.9479ZM126.444 17.4475C125.946 17.9883 125.698 18.728 125.698 19.6666C125.698 20.6053 125.946 21.3449 126.444 21.8755C126.941 22.406 127.606 22.6764 128.428 22.6764C129.251 22.6764 129.885 22.4009 130.403 21.8602C130.92 21.3143 131.179 20.5848 131.179 19.6717C131.179 18.7586 130.92 18.0087 130.403 17.4628C129.885 16.917 129.225 16.6466 128.428 16.6466C127.631 16.6466 126.946 16.917 126.444 17.4526V17.4475Z" fill="#0C0C0C" stroke="#0C0C0C" stroke-width="0.3" stroke-miterlimit="10"/>
<path d="M145.229 15.4937C145.94 16.2845 146.295 17.3914 146.295 18.8198V24.8751H143.676V19.1208C143.676 18.2944 143.463 17.6516 143.042 17.1925C142.615 16.7334 142.037 16.5038 141.301 16.5038C140.565 16.5038 139.956 16.7487 139.504 17.2384C139.058 17.7281 138.829 18.427 138.829 19.3452V24.8751H136.19V14.4582H138.829V16.5446C139.103 15.8406 139.555 15.2948 140.184 14.902C140.814 14.5092 141.539 14.3102 142.362 14.3102C143.559 14.3102 144.514 14.703 145.224 15.4937H145.229Z" fill="#0C0C0C" stroke="#0C0C0C" stroke-width="0.3" stroke-miterlimit="10"/>
<path d="M148.767 10.4222C149.066 10.1518 149.457 10.0192 149.944 10.0192C150.431 10.0192 150.822 10.1518 151.122 10.4222C151.421 10.6925 151.568 11.0394 151.568 11.4679C151.568 11.8965 151.421 12.2229 151.122 12.4933C150.822 12.7637 150.431 12.8963 149.944 12.8963C149.457 12.8963 149.066 12.7637 148.767 12.4933C148.467 12.2229 148.32 11.8811 148.32 11.4679C148.32 11.0547 148.467 10.6925 148.767 10.4222ZM151.254 14.4573V24.8742H148.614V14.4573H151.254Z" fill="#0C0C0C" stroke="#0C0C0C" stroke-width="0.3" stroke-miterlimit="10"/>
<path d="M159.952 14.9479C160.576 15.3611 161.018 15.9171 161.282 16.6211V14.4582H163.901V24.8751H161.282V22.6917C161.018 23.3957 160.576 23.9568 159.952 24.3751C159.328 24.7934 158.582 25.0026 157.709 25.0026C156.836 25.0026 156.049 24.7883 155.354 24.3649C154.653 23.9415 154.11 23.3192 153.714 22.5131C153.318 21.7071 153.125 20.7532 153.125 19.6666C153.125 18.58 153.323 17.6261 153.714 16.8201C154.105 16.0141 154.653 15.3917 155.354 14.9683C156.054 14.5398 156.836 14.3306 157.709 14.3306C158.582 14.3306 159.328 14.5398 159.952 14.953V14.9479ZM156.546 17.4475C156.049 17.9883 155.8 18.728 155.8 19.6666C155.8 20.6053 156.049 21.3449 156.546 21.8755C157.044 22.406 157.709 22.6764 158.531 22.6764C159.353 22.6764 159.987 22.4009 160.505 21.8602C161.023 21.3143 161.282 20.5848 161.282 19.6717C161.282 18.7586 161.023 18.0087 160.505 17.4628C159.987 16.917 159.328 16.6466 158.531 16.6466C157.734 16.6466 157.049 16.917 156.546 17.4526V17.4475Z" fill="#0C0C0C" stroke="#0C0C0C" stroke-width="0.3" stroke-miterlimit="10"/>
<path d="M172.358 24.8747L168.932 20.3243V24.8747H166.292V10.9583H168.932V18.7786L172.337 14.4527H175.464L171.104 19.6407L175.575 24.8696H172.358V24.8747Z" fill="#0C0C0C" stroke="#0C0C0C" stroke-width="0.3" stroke-miterlimit="10"/>
<path d="M183.452 15.2836C184.214 15.9212 184.686 16.7731 184.874 17.8393H182.402C182.3 17.3394 182.077 16.9364 181.727 16.6354C181.377 16.3344 180.925 16.1865 180.362 16.1865C179.915 16.1865 179.565 16.2936 179.316 16.5079C179.067 16.7221 178.94 17.0078 178.94 17.3751C178.94 17.6659 179.042 17.8954 179.24 18.0689C179.438 18.2423 179.686 18.3801 179.986 18.4821C180.285 18.5841 180.717 18.7014 181.275 18.8392C182.062 19.0126 182.701 19.2014 183.194 19.3952C183.686 19.5891 184.112 19.8952 184.468 20.3186C184.823 20.742 185 21.3031 185 22.0224C185 22.9151 184.655 23.6344 183.96 24.1854C183.27 24.7363 182.336 25.0118 181.163 25.0118C179.818 25.0118 178.737 24.7057 177.925 24.0986C177.113 23.4916 176.621 22.6244 176.448 21.4919H178.976C179.037 22.0071 179.265 22.4101 179.651 22.706C180.037 23.0019 180.544 23.1498 181.169 23.1498C181.615 23.1498 181.96 23.0427 182.199 22.8233C182.437 22.604 182.554 22.3183 182.554 21.9663C182.554 21.6653 182.453 21.4205 182.245 21.2317C182.036 21.043 181.783 20.9001 181.478 20.7981C181.174 20.6961 180.737 20.5787 180.179 20.441C179.407 20.2676 178.778 20.089 178.301 19.9054C177.819 19.7217 177.408 19.4309 177.068 19.033C176.722 18.63 176.555 18.0791 176.555 17.3802C176.555 16.4773 176.9 15.7427 177.585 15.1815C178.27 14.6204 179.22 14.3347 180.428 14.3347C181.635 14.3347 182.696 14.6561 183.458 15.2938L183.452 15.2836Z" fill="#0C0C0C" stroke="#0C0C0C" stroke-width="0.3" stroke-miterlimit="10"/>
<path d="M32.1377 22.8692C30.0974 28.9755 24.4129 33.0821 17.9975 33.0821C9.7753 33.0821 3.08587 26.3585 3.08587 18.0944C3.08587 9.83025 9.7753 3.1016 17.9975 3.1016C24.5702 3.1016 30.2953 7.3357 32.2443 13.6409L32.3204 13.8858L35.2692 12.9676L35.1931 12.7227C32.8432 5.11152 25.9355 0 17.9975 0C8.07503 0 0 8.1162 0 18.0893C0 28.0624 8.07503 36.1837 17.9975 36.1837C25.7426 36.1837 32.5996 31.2303 35.0662 23.8538L35.1474 23.614L32.2189 22.6244L32.1377 22.8641V22.8692Z" fill="#0C0C0C"/>
<path d="M17.5356 26.2751H18.5558L22.3319 17.5518L22.3269 25.3875H26.4633V22.5919H25.1184V19.9188L27.0876 19.4648V16.7101L25.1184 17.1641V13.1545L26.4633 12.8433V10.058L21.7229 11.1803L18.0026 19.623" fill="#0C0C0C"/>
<path d="M18.475 26.2751H17.4548L13.6787 17.5518L13.6837 25.3875H9.54725V22.5919H10.8922V19.9188L8.92297 19.4648V16.7101L10.8922 17.1641V13.1545L9.54725 12.8433V10.058L14.2877 11.1803L18.008 19.623" fill="#0C0C0C"/>
</svg>
