<svg width="244" height="40" viewBox="0 0 244 40" fill="none" xmlns="http://www.w3.org/2000/svg">
<path d="M130.215 13.0637V8.56604H124.005V40.0008H130.215V26.9378V13.0637Z" fill="#4715ff"/>
<path d="M216.211 8.56445H210.324V31.4216H216.211V8.56445Z" fill="#4715ff"/>
<path d="M216.21 0.491699H210.324V5.57926H216.21V0.491699Z" fill="#4715ff"/>
<path d="M164.781 8.07381C157.354 8.07381 153.194 11.8219 152.461 17.9171C152.374 18.5807 152.337 19.2812 152.337 19.9939C152.337 20.4732 152.349 20.9525 152.387 21.4071C152.461 22.3042 152.598 23.1521 152.809 23.9509C154.125 28.9279 158.149 31.9141 164.781 31.9141C171.412 31.9141 175.349 28.9893 176.715 24.0861H170.146V26.9248H158.807V21.3949H177.175C177.224 20.7927 178.777 8.06152 164.781 8.06152V8.07381ZM170.754 17.9171H158.795V13.0631H170.754V17.9171Z" fill="#4715ff"/>
<path d="M243.5 16.3449C243.5 9.16829 236.533 8.07458 232.31 8.07458C225.84 8.07458 220.699 10.5201 220.699 15.8411H226.896V13.0638H237.303V18.5323H226.598C224.188 18.5323 222.214 19.7121 221.009 21.6291C219.656 23.7796 219.656 26.6061 221.096 28.7689C222.437 30.6614 224.735 31.9271 228.895 31.9271C233.056 31.9271 235.924 29.8134 237.315 26.9502H226.287V22.0346H237.315V31.4478H243.525V16.3572L243.5 16.3449Z" fill="#4715ff"/>
<path d="M138.75 8.07458C134.639 8.07458 131.783 9.89333 130.23 13.0638H142.19V26.9379H130.23C131.783 30.0961 134.639 31.9148 138.75 31.9148C145.307 31.9148 148.66 27.3065 148.66 19.9947C148.66 12.6829 145.307 8.07458 138.75 8.07458Z" fill="#4715ff"/>
<path d="M199.35 13.063V26.937V31.4347H205.571V18.3717V4.48541V0H199.35V13.063Z" fill="#4715ff"/>
<path d="M187.388 13.0638H199.347C197.795 9.89333 194.938 8.07458 190.828 8.07458C184.271 8.07458 180.917 12.6829 180.917 19.9947C180.917 27.3065 184.271 31.9148 190.828 31.9148C194.938 31.9148 197.795 30.0961 199.347 26.9379H187.388V13.0638Z" fill="#4715ff"/>
<path d="M107.868 8.07458C99.6346 8.07458 95.4246 12.6829 95.4246 19.9947C95.4246 27.3065 99.6346 31.9148 107.868 31.9148C116.102 31.9148 120.324 27.3065 120.324 19.9947C120.324 12.6829 116.102 8.07458 107.868 8.07458ZM113.842 26.9379H101.882V13.0515H113.842V26.9379Z" fill="#4715ff"/>
<path d="M73.3271 13.063V4.48541V0H67.1052V31.4347H73.3271V26.937V18.3717V13.063Z" fill="#4715ff"/>
<path d="M81.8372 8.07458C77.7266 8.07458 74.8702 9.89333 73.3179 13.0638H85.2772V26.9379H73.3179C74.8702 30.0961 77.7266 31.9148 81.8372 31.9148C88.3944 31.9148 91.7475 27.3065 91.7475 19.9947C91.7475 12.6829 88.3944 8.07458 81.8372 8.07458Z" fill="#4715ff"/>
<path d="M50.9747 8.07381C43.5482 8.07381 39.3879 11.8219 38.6427 17.9171C38.5558 18.5807 38.5186 19.2812 38.5186 19.9939C38.5186 20.4732 38.531 20.9525 38.5682 21.4071C38.6427 22.3042 38.7793 23.1521 38.9905 23.9509C40.3069 28.9279 44.3306 31.9141 50.9623 31.9141C57.5939 31.9141 61.5307 28.9893 62.8968 24.0861H56.3272V26.9248H44.9888V21.3949H63.3563C63.3935 20.9402 63.406 20.4609 63.406 19.9816C63.406 19.2566 63.3687 18.5684 63.2818 17.9048C62.5366 11.8096 58.3763 8.06152 50.9623 8.06152L50.9747 8.07381ZM56.9606 17.9171H45.0012V13.0631H56.9606V17.9171Z" fill="#4715ff"/>
<path d="M28.5947 26.9378C32.0348 26.9378 34.8166 24.2588 34.8166 19.2819V8.56604H28.5947V26.9378Z" fill="#4715ff"/>
<path d="M20.7692 8.56604H14.5474V26.9378H20.7692V8.56604Z" fill="#4715ff"/>
<path d="M0.5 8.56604V19.2819C0.5 24.2588 3.28183 26.9378 6.72185 26.9378V8.56604H0.5Z" fill="#4715ff"/>
<path d="M28.5902 26.9385H20.7664V31.4239H28.5902V26.9385Z" fill="#4715ff"/>
<path d="M14.5487 26.9385H6.72485V31.4239H14.5487V26.9385Z" fill="#4715ff"/>
</svg>
