<?xml version="1.0" encoding="UTF-8"?>
<svg width="1200pt" height="1200pt" version="1.1" viewBox="0 0 1200 1200" xmlns="http://www.w3.org/2000/svg">
 <path d="m1101.7 542.86-0.23438-87.984c0-0.14062-0.14062-0.1875-0.14062-0.32812-0.1875-9.0469-5.8594-17.297-16.219-23.344l-303.1-176.16c-2.4844-1.4531-5.6719-0.60937-7.0781 1.875-1.4531 2.4844-0.60938 5.625 1.875 7.0781l303.1 176.16c14.719 8.5312 15.141 21-0.42188 29.859-40.641 23.484 147.14-84.984-397.13 229.4-17.109 9.8438-44.812 9.8906-61.781 0l-500.63-290.95c-14.016-8.1562-15.656-20.719 0.1875-29.859l397.22-229.31c16.875-9.75 45.281-9.7969 61.922-0.09375l122.16 71.016c2.4844 1.4062 5.625 0.60938 7.0781-1.875s0.60938-5.625-1.875-7.0781l-122.16-71.016c-20.156-11.719-51.938-11.719-72.328 0.09375l-397.22 229.36c-10.594 6.0938-16.406 14.531-16.547 23.672 0.1875 48.609 0.32812 90.797 0.28125 88.266 0 8.2031 4.9219 15.75 13.547 21.656-8.7188 5.9062-13.688 13.5-13.828 21.75 0 0.14063-0.09375 0.23438-0.09375 0.375l0.42188 87.984c0 8.2031 4.9219 15.75 13.594 21.656-8.7188 5.9062-13.641 13.453-13.828 21.703-0.046875 0.14063-0.1875 0.23438-0.1875 0.375l0.42188 87.984c0 9.1406 5.8125 17.531 16.359 23.672l500.53 290.9c20.25 11.766 51.984 11.672 72.234 0l229.55-132.47c2.4844-1.4062 3.3281-4.5938 1.9219-7.0781-1.4531-2.4844-4.6875-3.3281-7.0781-1.875l-229.55 132.47c-17.156 9.8906-44.953 9.8438-61.875 0l-500.53-290.9c-7.2656-4.2188-11.25-9.4219-11.25-14.719l-0.32812-68.297c4.7344 3.9844-27.047-14.953 506.63 295.13 17.859 10.312 50.625 12.469 72.328 0 2.0625-1.2188 399.66-230.72 403.55-233.95l0.1875 68.391c0 5.3906-4.1719 10.922-11.438 15.141l-59.344 34.219c-2.4844 1.4062-3.3281 4.5938-1.9219 7.0781 1.4531 2.4844 4.6406 3.2812 7.0781 1.875l59.344-34.219c10.734-6.2344 16.594-14.812 16.594-24.141 0-2.0625-0.32812-94.078-0.32812-88.172-0.09375-8.1562-4.9219-15.656-13.406-21.516 8.6719-5.9531 13.734-13.781 13.734-22.031 0-6.8906-0.23438-90.141-0.23438-87.984 0-0.09375-0.09375-0.14062-0.09375-0.23438-0.14062-8.2031-4.9688-15.656-13.5-21.375 8.8125-6.0469 13.828-13.734 13.828-22.172zm-22.172 190.69c-40.641 23.484 147.14-85.031-397.13 229.45-17.016 9.8438-44.812 9.8438-61.781 0-533.29-309.98-502.13-291.52-505.55-294.37-10.547-9.1406-7.125-19.406 4.9688-26.484l1.875-1.0781 493.69 286.92c20.016 11.625 51.75 11.812 72.234 0l390.47-225.32 1.6875 0.9375c15.328 8.9531 14.438 21.422-0.46875 29.953zm0.42188-43.781-397.26 229.22c-17.156 9.8906-44.953 9.8906-61.875 0l-500.53-290.9c-7.2656-4.2188-11.25-9.4219-11.25-14.719l-0.32812-68.297c4.9219 4.1719-25.547-14.062 506.68 295.13 20.156 11.672 51.891 11.719 72.281 0 412.03-238.13 398.95-230.11 403.55-233.9l0.1875 68.344c0 5.3906-4.1719 10.922-11.438 15.141zm6.1406-93c-4.5938 4.5469 25.547-13.547-403.74 234.42-16.922 9.75-44.391 9.7969-61.406 0.14062-4.9219-2.7656-498.66-289.6-501.05-291-14.203-8.4844-15.422-20.906 0.14062-30l1.8281-1.0781 493.74 286.97c20.25 11.766 51.984 11.672 72.234 0l390.37-225.24 1.8281 1.0781c10.781 6.1406 15.328 15.422 6.0469 24.703zm-6.1406-38.719-397.26 229.22c-17.156 9.8906-44.953 9.8438-61.875 0l-500.53-290.9c-7.2656-4.2188-11.25-9.4219-11.25-14.719l-0.32812-68.297c5.2969 4.5-27.422-15.469 506.68 295.13 20.156 11.719 51.891 11.719 72.281 0 284.95-164.63 398.48-229.74 403.55-233.9l0.1875 68.344c0 5.3906-4.1719 10.875-11.438 15.141z"/>
 <path d="m547.13 171.74-117.52 67.875c-4.5469 2.625-2.6719 9.6562 2.5781 9.6562 2.625 0-4.5 3.0938 120.1-68.578 2.4844-1.4062 3.3281-4.5938 1.9219-7.0781-1.5-2.4844-4.6875-3.3281-7.0781-1.875z"/>
 <path d="m594.94 199.55-117.52 67.875c-2.4844 1.4062-3.3281 4.5938-1.9219 7.0781 1.4531 2.5312 4.6875 3.2812 7.0781 1.875l117.52-67.875c2.4844-1.4062 3.3281-4.5938 1.9219-7.0781-1.4531-2.4844-4.6406-3.3281-7.0781-1.875z"/>
 <path d="m642.79 227.29-117.47 67.875c-2.4844 1.4062-3.3281 4.5938-1.9219 7.0781 1.4531 2.5312 4.6875 3.2812 7.0781 1.875l117.47-67.875c2.4844-1.4062 3.3281-4.5938 1.9219-7.0781-1.5-2.4844-4.6406-3.2812-7.0781-1.875z"/>
 <path d="m571.26 330.05c1.4531 2.5312 4.6875 3.2812 7.0781 1.875l117.47-67.875c2.4844-1.4062 3.3281-4.5938 1.9219-7.0781-1.4531-2.4844-4.6875-3.3281-7.0781-1.875l-117.47 67.875c-2.5312 1.4531-3.375 4.5938-1.9219 7.0781z"/>
 <path d="m738.52 282.84-378.05 218.48c-4.5469 2.625-2.6719 9.6562 2.5781 9.6562 2.625 0-21.703 13.031 380.63-219.14 2.4844-1.4062 3.3281-4.5938 1.9219-7.0781-1.5-2.5312-4.6875-3.3281-7.0781-1.9219z"/>
 <path d="m604.4 421.78c-1.4531-2.4844-4.6875-3.3281-7.0781-1.875l-189 109.22c-2.4844 1.4062-3.3281 4.5938-1.9219 7.0781 1.4531 2.5312 4.6875 3.2812 7.0781 1.875l189-109.22c2.4844-1.4531 3.3281-4.6406 1.9219-7.0781z"/>
 <path d="m461.29 565.82 189.05-109.22c2.4844-1.4062 3.3281-4.5938 1.9219-7.0781-1.4531-2.4844-4.6875-3.3281-7.0781-1.875l-189.05 109.22c-2.4844 1.4062-3.3281 4.5938-1.9219 7.0781 1.5 2.5312 4.6875 3.2812 7.0781 1.875z"/>
 <path d="m509.16 593.63 189.05-109.22c2.4844-1.4062 3.3281-4.5938 1.9219-7.0781-1.4531-2.4844-4.6875-3.3281-7.0781-1.875l-189.05 109.22c-2.4844 1.4062-3.3281 4.5938-1.9219 7.0781 1.5 2.4844 4.6875 3.2812 7.0781 1.875z"/>
 <path d="m557.02 621.42 189-109.22c2.4844-1.4062 3.3281-4.5938 1.9219-7.0781-1.4531-2.4844-4.6406-3.3281-7.0781-1.875l-189 109.22c-2.4844 1.4062-3.3281 4.5938-1.9219 7.0781 1.5 2.4844 4.6875 3.2812 7.0781 1.875z"/>
 <path d="m977.76 421.78-378.05 218.44c-2.4844 1.4062-3.3281 4.5938-1.9219 7.0781 1.4531 2.5312 4.6875 3.2812 7.0781 1.875l378.05-218.44c2.4844-1.4062 3.3281-4.5938 1.9219-7.0781-1.5-2.4844-4.6875-3.3281-7.0781-1.875z"/>
 <path d="m645.66 675.05c1.4531 2.5312 4.6875 3.2812 7.0781 1.875l378.05-218.44c2.4844-1.4062 3.3281-4.5938 1.9219-7.0781-1.4531-2.4844-4.6875-3.3281-7.0781-1.875l-378.1 218.48c-2.4844 1.4062-3.2812 4.5938-1.875 7.0312z"/>
 <path d="m382.26 267-213.24 123.19c-3.4688 2.0156-3.4219 6.9844 0 8.9531l141.98 82.594c1.5938 0.9375 3.6094 0.9375 5.2031 0l212.76-123.61c3.4219-2.0156 3.4219-6.9375 0-8.9531l-141.56-82.172c-1.5938-0.9375-3.5625-0.9375-5.1562 0zm-68.625 204.32-131.68-76.594 202.87-117.23 131.26 76.219z"/>
 <path d="m793.5 312.14c-1.5938-0.9375-3.5625-0.9375-5.2031 0l-149.76 86.531c-3.4688 2.0156-3.4219 6.9844 0 8.9531l141.98 82.594c1.5469 0.89062 3.5625 0.9375 5.2031 0l149.34-86.953c3.375-1.9219 3.4688-6.8906 0-8.9531zm-10.359 167.68-131.68-76.594 139.45-80.578 131.26 76.219z"/>
</svg>
