<?xml version="1.0" encoding="UTF-8"?>
<svg width="1200pt" height="1200pt" version="1.1" viewBox="0 0 1200 1200" xmlns="http://www.w3.org/2000/svg">
 <path d="m1088.2 592.03-100.12-57.703c-2.4844-1.4062-5.625-0.5625-7.0781 1.9219-1.4062 2.4844-0.5625 5.625 1.9219 7.0781l100.12 57.703c11.016 6.4219 11.297 15.188 0 21.703l-623.02 362.06c-12.047 7.0781-31.781 7.2188-44.953 1.0312-7.5938-3.5625-88.641-50.625-297.61-171.32-10.969-6.3281-11.672-15.047-0.1875-21.656l399.14-232.03c0.32812 2.8125-2.2031 18.234 9.0469 34.594l-235.4 136.03c-7.4062 4.125-7.125 12.75-0.09375 16.641l51.609 29.906c2.7188 1.6406 6.0938 2.4844 9.4688 2.4844 9.6562 0-11.719 8.625 363.71-207.05 7.125-4.2188 6.9375-12.75-0.046875-16.594l-51.609-29.953c-5.3906-3.2812-13.5-3.2812-18.75-0.046875l-28.453 16.406v-40.406l124.26-72.188c12.797-7.5469 34.688-7.5 47.766 0l110.48 63.703c2.4844 1.4062 5.625 0.5625 7.0781-1.9219 1.4062-2.4844 0.5625-5.625-1.9219-7.0781l-110.48-63.703c-16.406-9.4688-41.953-9.4688-58.172 0l-119.06 69.141v-135.84c0-24.609-14.297-46.969-36.422-56.859-15.938-7.0312-182.76-81.422-195.84-87.281-14.297-79.078-89.25-112.83-165.1-69.047-66.422 38.484-116.39 125.21-116.16 201.66 0.28125 89.625 71.625 138.32 149.95 104.81l9.4219 5.3906c-17.719 6.9844-28.922 18.141-33.281 34.641-3.375 17.625 0 31.312 10.219 41.766 9.4688 9.9844 16.828 9.5625 100.22 44.344 23.578 10.875 48.844-1.0312 60.703-24.516 29.109 13.688 65.719-7.0312 70.312-40.969 16.547 5.2969 32.109 4.2188 46.406-3.2812v43.172l-404.26 235.08c-8.625 4.9688-13.406 11.906-13.453 19.5-0.14062 32.812-0.28125 79.875-0.28125 76.922 0 7.6875 4.9688 14.953 13.641 19.922l54.469 31.453c2.4844 1.4531 5.625 0.5625 7.0781-1.875 1.4531-2.4844 0.5625-5.625-1.875-7.0781l-54.516-31.5c-5.3906-3.0938-8.4844-7.0781-8.4844-10.922l0.1875-59.016c6.9375 5.0625 295.82 171 298.26 172.45 16.359 9.4688 41.906 9.4688 58.172 0 650.21-377.9 623.48-362.16 626.06-364.03l-0.1875 58.969c0 3.7969-3.0469 7.6875-8.2969 10.781l-623.02 362.02c-12.938 7.5469-34.828 7.5-47.812 0l-177.74-102.61c-2.4375-1.4062-5.625-0.5625-7.0781 1.875-1.4531 2.4844-0.5625 5.625 1.875 7.0781l177.74 102.61c16.359 9.4688 41.953 9.4688 58.172 0l623.02-362.02c8.6719-5.0625 13.453-12.047 13.453-19.688 0-5.3438 0.23438-80.391 0.23438-76.688v-0.046875c0.046875-7.7812-4.7344-14.812-13.453-19.922zm-438.52-56.297c2.0625-1.2656 6-1.2656 8.1562 0.046875l50.578 29.391-353.39 204.05c-2.0625 1.2656-5.9531 1.2656-8.1562-0.046875l-50.578-29.391 236.02-136.4c32.719 30.562 83.578 6.8438 83.578-36.844v-11.297zm-536.9-192.28c-0.1875-73.031 47.531-155.9 111-192.71 67.734-39.047 132-11.438 148.08 54.797-17.672-7.9219-33.516-15.047-45.75-20.578-15.047-6.5625-38.062-7.8281-52.359-2.8594-77.438 26.297-133.22 134.72-103.69 209.39 3.5156 8.7188 10.125 15.891 18.375 20.156l52.5 30.047c-69.797 25.031-127.92-20.859-128.16-98.25zm133.4 179.48c-7.875-8.0625-10.266-18.422-7.5938-32.297 4.0312-15.188 15.281-24.75 34.969-30.234l36.328 20.812 2.3438 50.859c0.28125 8.2969 2.5312 16.125 6.2812 22.875-58.641-24.422-65.344-24.656-72.328-32.016zm224.39-24.984c0.60938-18.984 1.4062-86.25-2.7656-104.95-4.875-24.844-17.156-32.109-29.812-39.094l-2.625-1.4531c-6.1406-3.375-11.297-5.3906-16.312-6.2812-2.8125-0.51562-5.4844 1.3125-6.0469 4.125-0.51562 2.8125 1.3125 5.4844 4.125 6.0469 3.8906 0.75 8.0625 2.3906 13.172 5.2031l2.6719 1.4531c11.062 6.0938 20.578 11.156 24.703 32.156 4.2188 18.891 2.7656 91.594 2.4844 106.69 0.14062 31.031-32.25 50.391-56.766 38.062 0.79688-3.2812 1.3594-6.5625 1.4531-9.6562 0.46875-6 0.75-9.8906 0.89062-13.359 0.046875-19.219 1.3594-52.781-2.5781-77.625-4.125-20.344-14.531-26.438-24.844-31.875-2.1094-0.98438-7.5938-4.7344-15.516-6-2.7656-0.46875-5.4844 1.4531-5.9531 4.2656s1.4531 5.4844 4.2656 5.9531c3 0.46875 6.2344 1.6875 10.219 3.7969 9.9375 5.25 18.141 8.6719 21.609 25.688 3.3281 21.234 3.0938 69.094 1.875 84.188-0.46875 4.9219-0.14062 8.8125-2.3906 15.609-6.4219 16.922-23.438 31.406-43.594 26.203-14.672-3.6094-25.734-18.469-26.297-35.391l-2.4844-53.766c-0.09375-1.7812-1.0781-3.375-2.5781-4.2656-12.609-7.2188 45.188 25.875-124.13-71.062-6.2344-3.2344-11.109-8.5312-13.688-14.906-27.328-69.047 25.547-171.32 97.453-195.74 11.812-4.125 32.344-2.9531 44.812 2.5312 39.562 17.906 234.98 105.05 253.45 113.16 18.375 8.25 30.234 26.859 30.234 47.438v211.45c0 35.484-41.672 54-67.266 28.453-7.4531-7.6406-11.578-17.766-11.578-28.453v-68.109c6-8.5781 10.453-17.156 13.312-26.109 3.7969-11.297 3.9844-23.297 4.1719-34.219 0.09375-14.438 1.2188-78.562-3-97.406-4.7812-24.328-16.547-31.781-29.859-39.141-3.0938-1.6406-10.359-6.1875-18.938-7.7812-2.7656-0.51562-5.5312 1.3125-6 4.125-0.51562 2.8125 1.3125 5.4844 4.125 6 5.0625 0.9375 9.9375 3.4219 13.172 5.2031l2.6719 1.4531c28.125 15.516 28.031 24.938 27.469 127.64-0.32812 19.5-1.0781 33.375-15.422 53.953-14.484 10.547-30.234 12.234-47.906 5.8125z"/>
 <path d="m384.56 919.82 51.703 30.047c5.25 3.0469 13.219 3.0938 18.562 0l52.031-30.047c7.1719-4.125 7.2188-12.562 0.046875-16.734l-51.656-30.047c-5.2969-3.0938-13.312-3.0938-18.609 0l-52.031 30.047c-7.2188 4.1719-7.1719 12.609-0.046875 16.734zm57.234-37.781c2.1094-1.2188 6.1406-1.2188 8.25 0l50.578 29.438-51 29.438c-2.1094 1.2188-6.0938 1.2656-8.2031 0l-50.625-29.484z"/>
 <path d="m555.61 891.66 52.031-30.047c7.2656-4.2188 7.0781-12.609 0.046875-16.688l-51.656-30.047c-5.2969-3.0469-13.266-3.0938-18.609 0l-52.031 30.047c-7.1719 4.125-7.1719 12.562-0.046875 16.734l51.703 30.047c5.2031 3 13.172 3.0938 18.562-0.046875zm-13.031-67.828c2.1094-1.2188 6.0938-1.2188 8.2031 0l50.578 29.438-50.953 29.438c-2.1094 1.2188-6.0938 1.2188-8.2031 0l-50.578-29.484z"/>
 <path d="m656.39 833.48 52.031-30.047c7.0781-4.0781 7.2188-12.516 0.046875-16.688l-51.703-30.047c-5.2969-3.0469-13.266-3.0938-18.609 0l-52.031 30.047c-7.1719 4.125-7.2188 12.562-0.046875 16.734l51.703 30.047c5.25 3 13.266 3.0469 18.609-0.046875zm-13.031-67.828c2.1094-1.2188 6.0938-1.2188 8.2031 0l50.578 29.438-50.953 29.438c-2.1094 1.2188-6.0938 1.2188-8.2031 0l-50.625-29.484z"/>
 <path d="m757.13 775.31 52.031-30.047c7.1719-4.125 7.2188-12.562 0.046875-16.688l-51.656-30.047c-5.2969-3.0469-13.312-3.0938-18.609 0l-52.031 30.047c-7.1719 4.125-7.1719 12.562-0.046875 16.734l51.703 30.047c5.25 3 13.219 3.0469 18.562-0.046875zm-12.984-67.875c2.1094-1.2188 6.0938-1.2188 8.2031 0l50.625 29.484-51 29.438c-2.1094 1.2188-6.0938 1.2188-8.2031 0l-50.625-29.484z"/>
 <path d="m857.95 717.14 52.031-30.047c7.0781-4.0781 7.2188-12.516 0.046875-16.688l-51.703-30.047c-5.2969-3.0469-13.266-3.0938-18.609 0l-52.031 30.047c-7.1719 4.125-7.1719 12.562-0.046875 16.734l51.703 30.047c5.3438 3 13.312 3 18.609-0.046875zm-13.031-67.875c2.1094-1.2188 6.0938-1.2188 8.2031 0l50.578 29.438-51 29.438c-2.1094 1.2188-6.0938 1.2188-8.2031 0l-50.578-29.484z"/>
 <path d="m888.47 628.87 51.703 30.047c5.2969 3.0469 13.266 3.0469 18.562 0l52.031-30.047c7.1719-4.125 7.1719-12.562 0.046875-16.688l-51.703-30.047c-5.2969-3.0469-13.266-3.0938-18.609 0l-52.031 30.047c-7.1719 4.125-7.125 12.562 0 16.688zm57.234-37.781c2.1094-1.2188 6.0938-1.2188 8.2031 0l50.578 29.438-50.953 29.438c-2.1562 1.2188-6.0938 1.2188-8.2031 0l-50.625-29.484z"/>
 <path d="m286.87 863.06 51.703 30.047c5.25 3.0469 13.219 3.0938 18.562 0l52.031-30.047c7.1719-4.125 7.2188-12.562 0.09375-16.734l-51.703-30.047c-5.25-3.0938-13.266-3.0938-18.609 0l-52.031 30.047c-7.1719 4.1719-7.1719 12.609-0.046875 16.734zm57.234-37.781c2.1094-1.2188 6.0938-1.2656 8.2031 0l50.625 29.484-51 29.438c-2.1094 1.2188-6.0938 1.2188-8.2031 0l-50.625-29.484z"/>
 <path d="m439.74 758.16-52.031 30.047c-7.1719 4.125-7.1719 12.562-0.046875 16.688l51.703 30.047c5.25 3.0469 13.219 3.0938 18.562 0l52.031-30.047c7.2656-4.2188 7.0781-12.609 0.046875-16.688l-51.703-30.047c-5.2969-3.0938-13.266-3.0938-18.562 0zm13.031 67.828c-2.1094 1.2188-6.0938 1.2188-8.2031 0l-50.625-29.484 50.953-29.438c2.1094-1.2188 6.0938-1.2188 8.2031 0l50.625 29.484z"/>
 <path d="m540.52 699.94-52.031 30.047c-7.2188 4.1719-7.125 12.609-0.09375 16.734l51.703 30.047c5.25 3.0469 13.266 3.0938 18.609 0l52.031-30.047c7.1719-4.125 7.2188-12.562 0.046875-16.688l-51.703-30.047c-5.25-3.0938-13.219-3.1406-18.562-0.046875zm13.031 67.828c-2.1094 1.2188-6.1406 1.2656-8.2031 0l-50.625-29.484 51-29.438c2.1094-1.2188 6.0938-1.2188 8.2031 0l50.625 29.438z"/>
 <path d="m641.29 641.76-52.031 30.047c-7.1719 4.125-7.2188 12.562-0.046875 16.688l51.703 30.047c5.25 3.0469 13.219 3.0938 18.562 0l52.031-30.047c7.1719-4.125 7.2188-12.562 0.046875-16.688l-51.703-30.047c-5.25-3.0938-13.266-3.0938-18.562 0zm13.031 67.828c-2.1094 1.2188-6.0938 1.2656-8.2031 0l-50.625-29.484 51-29.438c2.1094-1.2188 6.0938-1.2188 8.2031 0l50.625 29.484z"/>
 <path d="m690 630.32 51.703 30.047c5.25 3.0469 13.219 3.0938 18.562 0l52.031-30.047c7.1719-4.125 7.2188-12.562 0.046875-16.688l-51.703-30.047c-5.2969-3.0938-13.266-3.0938-18.562 0l-52.078 30.047c-7.0312 4.0781-7.1719 12.469 0 16.688zm57.281-37.828c2.1094-1.2188 6.0938-1.2656 8.2031 0l50.625 29.438-50.953 29.438c-2.1094 1.2188-6.1406 1.2188-8.2031 0l-50.625-29.484z"/>
 <path d="m842.86 525.37-52.031 30.047c-7.1719 4.125-7.2188 12.562-0.046875 16.688l51.703 30.047c5.2969 3.0469 13.266 3.0469 18.562 0l52.031-30.047c7.1719-4.125 7.2188-12.562 0.046875-16.688l-51.703-30.047c-5.25-3.0938-13.266-3.0469-18.562 0zm13.031 67.828c-2.1562 1.2188-6.0938 1.2188-8.2031 0l-50.625-29.484 50.953-29.438c2.1094-1.2188 6.0938-1.2188 8.2031 0l50.625 29.484z"/>
 <path d="m311.58 789.61-51.656-30.047c-5.2969-3.0938-13.312-3.0469-18.609 0l-52.031 30.047c-7.125 4.125-7.2188 12.516-0.046875 16.688l51.703 30.047c5.3438 3.0938 13.359 3 18.562 0l52.031-30.047c7.1719-4.125 7.1719-12.562 0.046875-16.688zm-57.281 37.781c-2.1094 1.2188-6.0938 1.2188-8.2031 0l-50.578-29.438 50.953-29.438c2.1094-1.2188 6.0938-1.2656 8.2031 0l50.578 29.438z"/>
 <path d="m763.36 545.44 52.031-30.047c7.2188-4.1719 7.1719-12.562 0.046875-16.688l-51.703-30.047c-5.2969-3.0469-13.266-3.0938-18.562 0l-52.031 30.047c-7.1719 4.125-7.2188 12.562-0.09375 16.688l51.703 30.047c5.3906 3.0938 13.406 3 18.609 0zm-63.938-38.438 50.953-29.438c2.1094-1.2188 6.0938-1.2188 8.2031 0l50.578 29.438-50.953 29.438c-2.1094 1.2188-6.0938 1.2188-8.2031 0z"/>
</svg>
